<?xml version="1.0" encoding="UTF-8" standalone="no"?>
<!-- Created with Inkscape (http://www.inkscape.org/) -->

<svg
   version="1.1"
   id="svg9"
   width="1280"
   height="688"
   viewBox="0 0 1280 688"
   xmlns="http://www.w3.org/2000/svg"
   xmlnsSvg="http://www.w3.org/2000/svg">
  <defs
     id="defs13" />
  <g
     id="g15">
    <path
       id="path177"
       d="m 402.24414,178.78516 c -49.89649,-2.67726 -73.60427,45.05734 -95.22309,80.72482 -22.99666,26.62793 -15.0555,-33.94193 -43.11941,-12.17184 -47.56821,12.24307 -97.95416,23.9372 -139.71817,50.06 -38.004368,23.1359 5.67333,65.46563 1.99033,81.02018 -16.85987,31.36108 26.20522,-4.49492 32.90194,17.36218 30.66469,28.86799 89.8906,15.94556 114.14684,24.97206 2.18908,38.61904 -13.5692,81.17749 3.04164,116.99791 11.1419,24.30874 46.80474,34.64458 28.60498,-1.62681 -15.21384,-39.18994 -20.22104,-82.82481 0.29883,-121.19809 28.06873,-32.72524 86.17196,-51.03207 76.98485,-106.13182 -13.20671,-36.20551 -50.80573,-76.52439 6.88542,-99.43916 6.39803,-5.19761 38.05581,-28.54479 13.20584,-30.56943 z m -11.61719,9.38086 c 1.53879,14.88811 -76.65941,65.90703 -45.20879,21.81372 11.78023,-12.97625 28.65818,-18.13199 45.20879,-21.81372 z M 276.25,253.39844 c 25.15726,26.82825 -32.16512,47.17283 -49.85219,64.74172 -26.12261,16.3776 -52.26875,37.26106 -81.00789,46.72578 -34.92616,-21.78382 -29.61051,-63.54844 11.69211,-73.5886 38.86746,-15.18959 78.77133,-26.89163 119.16797,-37.8789 z m 52.96875,3.17383 c 44.02911,23.08323 56.88898,93.58698 6.15759,118.91178 -20.78883,21.07724 -48.70741,22.32417 -40.00857,-15.12456 -4.85609,-37.57857 -13.91752,-91.64455 33.85098,-103.78722 z m 444.33008,9.78906 c -28.37034,27.09534 -42.44068,77.60772 -73.96888,94.53241 -21.74273,-14.46845 -25.74953,-109.91065 -45.50869,-54.37156 -5.9907,23.92932 -33.14069,90.1533 -54.92908,67.21538 -6.69371,-29.53595 16.60798,-86.30509 -1.32659,-98.36847 -9.11132,23.88293 -57.58211,75.37399 -69.08789,29.43302 -30.88535,-2.62007 7.83063,61.92683 -31.19254,74.17836 -42.21668,29.31375 -8.77574,-44.24411 -9.41569,-64.23553 -26.46878,-53.39088 -103.09393,5.76257 -106.84234,49.27017 -14.27533,33.15054 13.02409,62.55072 40.60178,33.85989 19.7061,-3.55247 52.30951,-75.93001 40.12425,-21.43816 0.83864,52.916 63.43382,4.26286 65.97592,-25.80942 21.48201,-25.64746 79.48759,-55.77343 59.2169,3.66073 -11.13653,25.80467 0.65738,62.45781 30.36594,33.83435 25.17989,-11.84094 30.54806,-54.8807 49.02605,-62.00185 12.9365,24.69009 28.57658,102.93165 53.37688,40.50249 11.20379,-36.64662 50.67373,-60.50911 56.17823,-96.43299 z m 132.23828,6.73828 c -20.06417,38.32302 -56.55838,81.32094 -90.48086,98.58703 -3.62801,-28.99109 25.17451,-78.7222 3.7314,-94.50458 -6.22766,38.77301 -21.82283,82.15535 -16.63519,119.14401 32.91681,1.77645 58.60257,-67.97078 73.4452,-53.78701 -20.07419,44.75368 -48.01349,85.42122 -92.50048,89.63759 -113.94585,4.99772 -227.60439,19.25905 -341.4187,22.75188 -24.30629,-10.05299 -63.45406,17.92112 -18.18741,12.49899 118.22206,-4.12699 244.53814,-16.9669 362.51216,-24.19796 -22.89203,25.27997 -40.62764,43.46968 -81.29149,38.14576 -100.69473,3.85369 -201.56598,11.92805 -301.38662,24.06754 37.9262,15.03084 83.57745,0.23518 124.20383,-1.74569 68.07031,-6.82068 136.82457,-9.20871 204.86006,-13.02037 -9.54191,33.40371 -55.1817,70.28821 -38.32442,114.78106 82.19261,131.82931 118.8922,-93.08146 157.49901,-117.13165 118.27948,-5.99752 237.2214,7.17707 355.1214,-6.22372 26.3522,-1.90261 26.5687,-28.51259 -0.8672,-14.02805 -110.6508,11.95615 -222.01434,4.12201 -333.00139,6.09353 -29.34004,-20.989 -6.9264,-35.93218 50.01328,-41.54472 19.12967,0.34003 151.32281,-32.67826 110.51581,-31.90579 -27.9853,-2.15079 -193.38202,58.80032 -160.55209,7.81872 26.82176,-30.07452 71.93356,-61.30445 105.95983,-78.16706 20.96943,0.72295 55.51526,-61.12163 19.81794,-29.19163 -36.11895,23.74007 -92.76691,65.06819 -121.62345,73.90509 -0.2436,-34.66343 43.57857,-72.44785 28.58938,-101.98297 z m -623.05078,22.57617 c -5.50669,41.16517 15.07899,124.02336 -54.95972,110.76543 -30.49912,3.31575 -100.89729,-30.32672 -40.73364,-49.04668 32.72019,-19.23488 60.42562,-46.90511 95.69336,-61.71875 z m 169.02929,12.92578 c 32.28454,20.42879 -22.47386,80.88432 -53.82895,89.57352 -18.20229,-25.44001 5.68237,-72.45511 34.90471,-85.50671 5.92313,-2.66611 12.38296,-4.19716 18.92424,-4.06681 z m 390.75535,112.26276 c -0.27566,22.47996 -3.93461,36.68697 -11.53501,57.56732 -13.08921,31.31041 -26.124,64.96023 -38.36523,96.64868 -15.17051,22.8564 -22.68264,79.05651 -60.48207,55.98609 -56.70413,-23.32422 -19.38486,-96.16332 9.62403,-127.95735 18.6406,-22.70449 42.25385,-40.77356 61.93068,-61.85907 15.32609,-11.25347 23.50771,-14.0092 38.8276,-20.38567 z" fill="white"/>
  </g>
</svg>
